<?xml version="1.0" encoding="UTF-8"?>
<svg xmlns="http://www.w3.org/2000/svg" xmlns:xlink="http://www.w3.org/1999/xlink" width="87px" height="22px" viewBox="0 0 88 22" version="1.1">
<g id="surface1">
<path style=" stroke:none;fill-rule:nonzero;fill:rgb(7.843137%,50.980392%,76.078431%);fill-opacity:1;" d="M 0 0.0273438 L 0 21.941406 L 88 22 L 88 0.0273438 Z M 0 0.0273438 "/>
<path style=" stroke:none;fill-rule:nonzero;fill:rgb(100%,100%,100%);fill-opacity:1;" d="M 35.183594 5.285156 L 30.257812 12.613281 C 29.746094 13.386719 28.84375 13.855469 27.902344 13.855469 C 26.371094 13.855469 25.101562 12.589844 25.101562 11.066406 C 25.101562 9.519531 26.371094 8.257812 27.914062 8.257812 C 28.066406 8.238281 28.273438 8.214844 28.417969 8.214844 C 29.480469 8.214844 30.5625 8.664062 31.300781 9.417969 L 32.773438 7.175781 C 31.628906 5.996094 29.929688 5.242188 28.230469 5.242188 C 25.0625 5.242188 22.15625 7.867188 22.15625 11.042969 C 22.15625 14.203125 24.753906 16.785156 27.925781 16.785156 C 29.460938 16.785156 30.992188 16.136719 32.058594 15.054688 L 35.453125 15.054688 L 35.472656 16.785156 L 38.417969 16.785156 L 38.417969 5.285156 Z M 33.835938 12.53125 L 35.453125 10.273438 L 35.472656 12.53125 Z M 33.835938 12.53125 "/>
<path style=" stroke:none;fill-rule:nonzero;fill:rgb(100%,100%,100%);fill-opacity:1;" d="M 44.0625 16.785156 L 41.117188 16.785156 L 41.117188 7.96875 L 38.828125 7.96875 L 38.828125 5.304688 L 46.351562 5.285156 L 46.351562 7.96875 L 44.0625 7.96875 Z M 44.0625 16.785156 "/>
<path style=" stroke:none;fill-rule:nonzero;fill:rgb(100%,100%,100%);fill-opacity:1;" d="M 56.167969 5.285156 L 53.222656 5.285156 L 53.203125 9.578125 L 49.726562 9.578125 L 49.703125 5.285156 L 46.761719 5.285156 L 46.761719 16.785156 L 49.726562 16.785156 L 49.726562 12.246094 L 53.222656 12.246094 L 53.222656 16.785156 L 56.167969 16.785156 Z M 56.167969 5.285156 "/>
<path style=" stroke:none;fill-rule:nonzero;fill:rgb(100%,100%,100%);fill-opacity:1;" d="M 79.769531 5.285156 L 79.769531 10.636719 L 75.722656 5.285156 L 73.042969 5.304688 L 73.019531 9.5 C 72.347656 7.054688 70.035156 5.285156 67.457031 5.285156 C 64.289062 5.285156 61.691406 7.867188 61.691406 11.042969 C 61.691406 12.0625 61.996094 13.101562 62.488281 13.996094 L 59.570312 13.996094 L 59.570312 5.285156 L 56.570312 5.285156 L 56.570312 16.785156 L 63.429688 16.785156 L 63.429688 15.175781 C 64.511719 16.175781 65.984375 16.785156 67.457031 16.785156 C 70.035156 16.785156 72.304688 15.054688 73.019531 12.613281 L 73.042969 16.785156 L 76.007812 16.785156 L 76.007812 11.1875 L 80.035156 16.785156 L 82.714844 16.785156 L 82.71875 5.285156 Z M 67.457031 13.976562 C 65.84375 13.976562 64.511719 12.675781 64.511719 11.042969 C 64.511719 9.4375 65.84375 8.113281 67.457031 8.113281 C 69.09375 8.113281 70.425781 9.4375 70.425781 11.042969 C 70.425781 12.675781 69.09375 13.976562 67.457031 13.976562 "/>
<path style=" stroke:none;fill-rule:nonzero;fill:rgb(100%,100%,100%);fill-opacity:1;" d="M 18.597656 13.996094 L 18.597656 12.386719 L 21.757812 12.386719 L 21.75 9.578125 L 18.597656 9.578125 L 18.597656 8.113281 L 22.078125 8.113281 L 22.074219 5.285156 L 15.367188 5.304688 L 15.367188 9.253906 C 14.671875 7.097656 12.664062 5.507812 10.375 5.304688 L 5.28125 5.285156 L 5.28125 16.785156 L 10.394531 16.785156 C 12.664062 16.582031 14.671875 14.996094 15.367188 12.859375 L 15.367188 16.785156 L 22.082031 16.785156 L 22.074219 13.996094 Z M 12.113281 12.796875 C 11.929688 13.570312 11.195312 14.117188 10.394531 14.140625 L 8.515625 14.140625 L 8.515625 7.96875 L 10.394531 7.96875 C 11.195312 7.96875 11.929688 8.542969 12.113281 9.335938 C 12.296875 9.863281 12.402344 10.476562 12.402344 11.042969 C 12.402344 11.636719 12.296875 12.246094 12.113281 12.796875 "/>
</g>
</svg>
